{
	"asset":{
		"version":"2.0",
		"generator":"Created using the official Cinema 4D glTF Exporter 1.000x284978"
	},
	"scenes":[{
		"nodes":[0]
	}],
	"nodes":[{
		"name":"Default",
		"mesh":0
	}],
	"meshes":[{
		"name":"Default",
		"primitives":[{
			"attributes":{
				"POSITION":1,
				"NORMAL":2
			},
			"indices":0,
			"material":0
		}]
	}],
	"accessors":[{
		"bufferView":0,
		"type":"SCALAR",
		"max":[47],
		"componentType":5123,
		"min":[0],
		"count":72,
		"byteOffset":0
	},
	{
		"bufferView":1,
		"type":"VEC3",
		"max":[7.74029541015625,
		24.425251007080079,
		15.322807312011719],
		"componentType":5126,
		"min":[-10.944205284118653,
		0.0,
		-8.896077156066895],
		"count":48,
		"byteOffset":0
	},
	{
		"bufferView":1,
		"type":"VEC3",
		"max":[1.0,
		1.0,
		1.0],
		"componentType":5126,
		"min":[-1.0,
		-1.0,
		-1.0],
		"count":48,
		"byteOffset":12
	}],
	"bufferViews":[{
		"byteOffset":0,
		"buffer":0,
		"byteLength":144,
		"target":34963
	},
	{
		"byteOffset":144,
		"buffer":0,
		"byteStride":24,
		"byteLength":1152,
		"target":34962
	}],
	"buffers":[{
		"uri":"data:application/octet-stream;base64,",
		"byteLength":1296
	}],
	"materials":[{
		"pbrMetallicRoughness":{
			"baseColorFactor":[1.0,
			1.0,
			1.0,
			1.0],
			"metallicFactor":0.0,
			"roughnessFactor":0.5
		},
		"emissiveFactor":[0.0,
		0.0,
		0.0],
		"alphaMode":"OPAQUE",
		"doubleSided":false,
		"name":"??_2"
	}]
}