{
	"asset":{
		"version":"2.0",
		"generator":"Created using the official Cinema 4D glTF Exporter 1.000x284978"
	},
	"scenes":[{
		"nodes":[0]
	}],
	"bufferViews":[{
		"buffer":0,
		"target":34963,
		"byteOffset":0,
		"byteLength":10368
	},
	{
		"buffer":0,
		"target":34962,
		"byteOffset":10368,
		"byteLength":32320,
		"byteStride":32
	}],
	"nodes":[{
		"name":"细分曲面",
		"translation":[13.222941398620606,
		120.44902038574219,
		54.90415573120117],
		"rotation":[0.0,
		0.0,
		0.0,
		-1.0],
		"scale":[1.0,
		1.0,
		1.0],
		"children":[1]
	},
	{
		"name":"立方体",
		"translation":[0.3219135105609894,
		97.50244140625,
		0.0],
		"rotation":[0.0,
		0.0,
		0.0,
		-1.0],
		"scale":[1.0,
		1.0,
		1.0],
		"mesh":0
	}],
	"meshes":[{
		"primitives":[{
			"attributes":{
				"POSITION":1,
				"NORMAL":2,
				"TEXCOORD_0":3
			},
			"indices":0
		}],
		"name":"立方体"
	}],
	"accessors":[{
		"bufferView":0,
		"type":"SCALAR",
		"componentType":5123,
		"count":5184,
		"byteOffset":0,
		"min":[0],
		"max":[1009]
	},
	{
		"bufferView":1,
		"type":"VEC3",
		"componentType":5126,
		"count":1010,
		"byteOffset":0,
		"min":[-158.2556610107422,
		-136.2052459716797,
		-150.1691436767578],
		"max":[203.861328125,
		124.56381225585938,
		129.26443481445313]
	},
	{
		"bufferView":1,
		"type":"VEC3",
		"componentType":5126,
		"count":1010,
		"byteOffset":12,
		"min":[-0.9992634654045105,
		-0.9969614148139954,
		-1.0],
		"max":[0.9175450801849365,
		1.0,
		0.9999542832374573]
	},
	{
		"bufferView":1,
		"type":"VEC2",
		"componentType":5126,
		"count":1010,
		"byteOffset":24,
		"min":[0.0,
		0.0],
		"max":[1.0,
		1.0]
	}],
	"buffers":[{
		"uri":"data:application/octet-stream;base64,",
		"byteLength":42688
	}]
}